<svg width="427" height="496" viewBox="0 0 427 496" fill="none" xmlns="http://www.w3.org/2000/svg">
<path d="M45 278.906C45 262.337 58.4315 248.906 75 248.906H145V338.906C145 344.429 140.523 348.906 135 348.906H45V278.906Z" fill="#5DAE1D"/>
<g filter="url(#filter0_dddddd_1_635)">
<rect x="80" y="1.90588" width="267" height="314" rx="36" fill="white"/>
</g>
<path d="M141.617 200.77V202.258H137.297V205.522H141.137V207.01H137.297V210.418H141.617V211.906H135.473V200.77H141.617ZM150.12 211.906V206.978C150.12 205.362 149.24 204.53 147.912 204.53C146.568 204.53 145.688 205.362 145.688 206.978V211.906H143.864V203.09H145.688V204.098C146.28 203.378 147.256 202.946 148.312 202.946C150.376 202.946 151.928 204.242 151.928 206.706V211.906H150.12ZM153.647 207.458C153.647 204.738 155.487 202.946 157.807 202.946C159.247 202.946 160.319 203.618 160.863 204.37V203.09H162.703V212.05C162.703 214.45 161.151 216.258 158.399 216.258C156.047 216.258 154.303 215.09 154.079 213.138H155.887C156.159 214.05 157.135 214.674 158.399 214.674C159.807 214.674 160.863 213.81 160.863 212.05V210.578C160.303 211.33 159.247 212.05 157.807 212.05C155.487 212.05 153.647 210.178 153.647 207.458ZM160.863 207.49C160.863 205.602 159.567 204.53 158.191 204.53C156.831 204.53 155.519 205.554 155.519 207.458C155.519 209.362 156.831 210.466 158.191 210.466C159.567 210.466 160.863 209.394 160.863 207.49ZM166.922 207.266V211.906H165.098V203.09H166.922V204.37C167.434 203.49 168.314 202.946 169.562 202.946V204.834H169.098C167.754 204.834 166.922 205.394 166.922 207.266ZM179.639 207.49C179.639 210.258 177.591 212.05 175.063 212.05C172.551 212.05 170.647 210.258 170.647 207.49C170.647 204.722 172.631 202.946 175.143 202.946C177.655 202.946 179.639 204.722 179.639 207.49ZM172.503 207.49C172.503 209.49 173.687 210.466 175.063 210.466C176.423 210.466 177.767 209.49 177.767 207.49C177.767 205.49 176.471 204.53 175.111 204.53C173.735 204.53 172.503 205.49 172.503 207.49ZM188.018 209.442C188.018 210.93 186.722 212.05 184.642 212.05C182.53 212.05 181.042 210.802 180.962 209.202H182.85C182.914 209.922 183.602 210.514 184.61 210.514C185.666 210.514 186.226 210.066 186.226 209.458C186.226 207.73 181.106 208.722 181.106 205.49C181.106 204.082 182.418 202.946 184.498 202.946C186.498 202.946 187.81 204.018 187.906 205.778H186.082C186.018 205.01 185.426 204.482 184.434 204.482C183.458 204.482 182.946 204.882 182.946 205.474C182.946 207.25 187.922 206.258 188.018 209.442ZM196.565 209.442C196.565 210.93 195.269 212.05 193.189 212.05C191.077 212.05 189.589 210.802 189.509 209.202H191.397C191.461 209.922 192.149 210.514 193.157 210.514C194.213 210.514 194.773 210.066 194.773 209.458C194.773 207.73 189.653 208.722 189.653 205.49C189.653 204.082 190.965 202.946 193.045 202.946C195.045 202.946 196.357 204.018 196.453 205.778H194.629C194.565 205.01 193.973 204.482 192.981 204.482C192.005 204.482 191.493 204.882 191.493 205.474C191.493 207.25 196.469 206.258 196.565 209.442ZM202.248 204.482C201.016 204.482 200.024 205.314 199.832 206.706H204.712C204.68 205.346 203.608 204.482 202.248 204.482ZM206.376 209.282C205.88 210.818 204.488 212.05 202.328 212.05C199.8 212.05 197.928 210.258 197.928 207.49C197.928 204.722 199.72 202.946 202.328 202.946C204.84 202.946 206.616 204.69 206.616 207.282C206.616 207.586 206.6 207.874 206.552 208.178H199.816C199.944 209.634 200.984 210.514 202.328 210.514C203.448 210.514 204.072 209.97 204.408 209.282H206.376ZM207.803 207.458C207.803 204.738 209.643 202.946 211.979 202.946C213.131 202.946 214.347 203.49 215.019 204.322V200.066H216.859V211.906H215.019V210.578C214.459 211.378 213.403 212.05 211.963 212.05C209.643 212.05 207.803 210.178 207.803 207.458ZM215.019 207.49C215.019 205.602 213.723 204.53 212.347 204.53C210.987 204.53 209.675 205.554 209.675 207.458C209.675 209.362 210.987 210.466 212.347 210.466C213.723 210.466 215.019 209.394 215.019 207.49ZM223.411 211.906V200.066H225.235V211.906H223.411ZM227.63 211.906V203.09H229.454V211.906H227.63ZM228.558 201.922C227.902 201.922 227.39 201.41 227.39 200.754C227.39 200.098 227.902 199.586 228.558 199.586C229.198 199.586 229.71 200.098 229.71 200.754C229.71 201.41 229.198 201.922 228.558 201.922ZM238.424 209.442C238.424 210.93 237.128 212.05 235.048 212.05C232.936 212.05 231.448 210.802 231.368 209.202H233.256C233.32 209.922 234.008 210.514 235.016 210.514C236.072 210.514 236.632 210.066 236.632 209.458C236.632 207.73 231.512 208.722 231.512 205.49C231.512 204.082 232.824 202.946 234.904 202.946C236.904 202.946 238.216 204.018 238.312 205.778H236.488C236.424 205.01 235.832 204.482 234.84 204.482C233.864 204.482 233.352 204.882 233.352 205.474C233.352 207.25 238.328 206.258 238.424 209.442ZM240.683 209.458V204.578H239.643V203.09H240.683V200.898H242.523V203.09H244.667V204.578H242.523V209.458C242.523 210.114 242.779 210.386 243.547 210.386H244.667V211.906H243.227C241.659 211.906 240.683 211.25 240.683 209.458ZM250.06 204.482C248.828 204.482 247.836 205.314 247.644 206.706H252.524C252.492 205.346 251.42 204.482 250.06 204.482ZM254.188 209.282C253.692 210.818 252.3 212.05 250.14 212.05C247.612 212.05 245.74 210.258 245.74 207.49C245.74 204.722 247.532 202.946 250.14 202.946C252.652 202.946 254.428 204.69 254.428 207.282C254.428 207.586 254.412 207.874 254.364 208.178H247.628C247.756 209.634 248.796 210.514 250.14 210.514C251.26 210.514 251.884 209.97 252.22 209.282H254.188ZM262.479 211.906V206.978C262.479 205.362 261.599 204.53 260.271 204.53C258.927 204.53 258.047 205.362 258.047 206.978V211.906H256.223V203.09H258.047V204.098C258.639 203.378 259.615 202.946 260.671 202.946C262.735 202.946 264.287 204.242 264.287 206.706V211.906H262.479ZM266.614 211.906V203.09H268.438V211.906H266.614ZM267.542 201.922C266.886 201.922 266.374 201.41 266.374 200.754C266.374 200.098 266.886 199.586 267.542 199.586C268.182 199.586 268.694 200.098 268.694 200.754C268.694 201.41 268.182 201.922 267.542 201.922ZM277.089 211.906V206.978C277.089 205.362 276.209 204.53 274.881 204.53C273.537 204.53 272.657 205.362 272.657 206.978V211.906H270.833V203.09H272.657V204.098C273.249 203.378 274.225 202.946 275.281 202.946C277.345 202.946 278.897 204.242 278.897 206.706V211.906H277.089ZM280.615 207.458C280.615 204.738 282.455 202.946 284.775 202.946C286.215 202.946 287.287 203.618 287.831 204.37V203.09H289.671V212.05C289.671 214.45 288.119 216.258 285.367 216.258C283.015 216.258 281.271 215.09 281.047 213.138H282.855C283.127 214.05 284.103 214.674 285.367 214.674C286.775 214.674 287.831 213.81 287.831 212.05V210.578C287.271 211.33 286.215 212.05 284.775 212.05C282.455 212.05 280.615 210.178 280.615 207.458ZM287.831 207.49C287.831 205.602 286.535 204.53 285.159 204.53C283.799 204.53 282.487 205.554 282.487 207.458C282.487 209.362 283.799 210.466 285.159 210.466C286.535 210.466 287.831 209.394 287.831 207.49ZM293.955 210.85C293.955 211.506 293.443 212.018 292.803 212.018C292.147 212.018 291.635 211.506 291.635 210.85C291.635 210.194 292.147 209.682 292.803 209.682C293.443 209.682 293.955 210.194 293.955 210.85ZM143.657 231.906H145.673C147.097 231.906 147.737 231.218 147.737 230.098C147.737 228.946 147.097 228.274 145.673 228.274H143.657V231.906ZM149.609 230.098C149.609 231.682 148.569 233.394 145.673 233.394H143.657V237.906H141.833V226.786H145.673C148.313 226.786 149.609 228.29 149.609 230.098ZM150.74 233.458C150.74 230.738 152.58 228.946 154.9 228.946C156.388 228.946 157.412 229.65 157.956 230.37V229.09H159.796V237.906H157.956V236.594C157.396 237.346 156.34 238.05 154.868 238.05C152.58 238.05 150.74 236.178 150.74 233.458ZM157.956 233.49C157.956 231.602 156.66 230.53 155.284 230.53C153.924 230.53 152.612 231.554 152.612 233.458C152.612 235.362 153.924 236.466 155.284 236.466C156.66 236.466 157.956 235.394 157.956 233.49ZM164.016 233.266V237.906H162.192V229.09H164.016V230.37C164.528 229.49 165.408 228.946 166.656 228.946V230.834H166.192C164.848 230.834 164.016 231.394 164.016 233.266ZM168.333 237.906V226.066H170.157V232.946L173.357 229.09H175.885L171.821 233.506L175.885 237.906H173.421L170.157 234.114V237.906H168.333ZM180.74 233.458C180.74 230.738 182.58 228.946 184.9 228.946C186.34 228.946 187.412 229.618 187.956 230.37V229.09H189.796V238.05C189.796 240.45 188.244 242.258 185.492 242.258C183.14 242.258 181.396 241.09 181.172 239.138H182.98C183.252 240.05 184.228 240.674 185.492 240.674C186.9 240.674 187.956 239.81 187.956 238.05V236.578C187.396 237.33 186.34 238.05 184.9 238.05C182.58 238.05 180.74 236.178 180.74 233.458ZM187.956 233.49C187.956 231.602 186.66 230.53 185.284 230.53C183.924 230.53 182.612 231.554 182.612 233.458C182.612 235.362 183.924 236.466 185.284 236.466C186.66 236.466 187.956 235.394 187.956 233.49ZM191.584 233.458C191.584 230.738 193.424 228.946 195.744 228.946C197.232 228.946 198.256 229.65 198.8 230.37V229.09H200.64V237.906H198.8V236.594C198.24 237.346 197.184 238.05 195.712 238.05C193.424 238.05 191.584 236.178 191.584 233.458ZM198.8 233.49C198.8 231.602 197.504 230.53 196.128 230.53C194.768 230.53 193.456 231.554 193.456 233.458C193.456 235.362 194.768 236.466 196.128 236.466C197.504 236.466 198.8 235.394 198.8 233.49ZM203.324 235.458V230.578H202.284V229.09H203.324V226.898H205.164V229.09H207.308V230.578H205.164V235.458C205.164 236.114 205.42 236.386 206.188 236.386H207.308V237.906H205.868C204.3 237.906 203.324 237.25 203.324 235.458ZM212.701 230.482C211.469 230.482 210.477 231.314 210.285 232.706H215.165C215.133 231.346 214.061 230.482 212.701 230.482ZM216.829 235.282C216.333 236.818 214.941 238.05 212.781 238.05C210.253 238.05 208.381 236.258 208.381 233.49C208.381 230.722 210.173 228.946 212.781 228.946C215.293 228.946 217.069 230.69 217.069 233.282C217.069 233.586 217.053 233.874 217.005 234.178H210.269C210.397 235.634 211.437 236.514 212.781 236.514C213.901 236.514 214.525 235.97 214.861 235.282H216.829ZM229.596 235.442C229.596 236.93 228.3 238.05 226.22 238.05C224.108 238.05 222.62 236.802 222.54 235.202H224.428C224.492 235.922 225.18 236.514 226.188 236.514C227.244 236.514 227.804 236.066 227.804 235.458C227.804 233.73 222.684 234.722 222.684 231.49C222.684 230.082 223.996 228.946 226.076 228.946C228.076 228.946 229.388 230.018 229.484 231.778H227.66C227.596 231.01 227.004 230.482 226.012 230.482C225.036 230.482 224.524 230.882 224.524 231.474C224.524 233.25 229.5 232.258 229.596 235.442ZM235.279 230.482C234.047 230.482 233.055 231.314 232.863 232.706H237.743C237.711 231.346 236.639 230.482 235.279 230.482ZM239.407 235.282C238.911 236.818 237.519 238.05 235.359 238.05C232.831 238.05 230.959 236.258 230.959 233.49C230.959 230.722 232.751 228.946 235.359 228.946C237.871 228.946 239.647 230.69 239.647 233.282C239.647 233.586 239.631 233.874 239.583 234.178H232.847C232.975 235.634 234.015 236.514 235.359 236.514C236.479 236.514 237.103 235.97 237.439 235.282H239.407ZM241.442 237.906V226.066H243.266V237.906H241.442ZM245.661 237.906V226.066H247.485V237.906H245.661ZM254.324 235.458V230.578H253.284V229.09H254.324V226.898H256.164V229.09H258.308V230.578H256.164V235.458C256.164 236.114 256.42 236.386 257.188 236.386H258.308V237.906H256.868C255.3 237.906 254.324 237.25 254.324 235.458ZM259.989 237.906V226.066H261.813V230.114C262.421 229.378 263.413 228.946 264.549 228.946C266.517 228.946 268.053 230.242 268.053 232.706V237.906H266.245V232.978C266.245 231.362 265.365 230.53 264.037 230.53C262.693 230.53 261.813 231.362 261.813 232.978V237.906H259.989ZM274.092 230.482C272.86 230.482 271.868 231.314 271.676 232.706H276.556C276.524 231.346 275.452 230.482 274.092 230.482ZM278.22 235.282C277.724 236.818 276.332 238.05 274.172 238.05C271.644 238.05 269.772 236.258 269.772 233.49C269.772 230.722 271.564 228.946 274.172 228.946C276.684 228.946 278.46 230.69 278.46 233.282C278.46 233.586 278.444 233.874 278.396 234.178H271.66C271.788 235.634 272.828 236.514 274.172 236.514C275.292 236.514 275.916 235.97 276.252 235.282H278.22ZM283.727 235.81L286.303 229.09H288.191L282.783 242.05H280.895L282.687 237.762L279.215 229.09H281.247L283.727 235.81ZM147.412 263.906L144.66 255.09H146.516L148.356 262.178L150.228 255.09H152.132L153.924 262.146L155.748 255.09H157.54L154.804 263.906H152.884L151.108 257.394L149.332 263.906H147.412ZM162.615 256.482C161.383 256.482 160.391 257.314 160.199 258.706H165.079C165.047 257.346 163.975 256.482 162.615 256.482ZM166.743 261.282C166.247 262.818 164.855 264.05 162.695 264.05C160.167 264.05 158.295 262.258 158.295 259.49C158.295 256.722 160.087 254.946 162.695 254.946C165.207 254.946 166.983 256.69 166.983 259.282C166.983 259.586 166.967 259.874 166.919 260.178H160.183C160.311 261.634 161.351 262.514 162.695 262.514C163.815 262.514 164.439 261.97 164.775 261.282H166.743ZM175.354 261.442C175.354 262.93 174.058 264.05 171.978 264.05C169.866 264.05 168.378 262.802 168.298 261.202H170.186C170.25 261.922 170.938 262.514 171.946 262.514C173.002 262.514 173.562 262.066 173.562 261.458C173.562 259.73 168.442 260.722 168.442 257.49C168.442 256.082 169.754 254.946 171.834 254.946C173.834 254.946 175.146 256.018 175.242 257.778H173.418C173.354 257.01 172.762 256.482 171.77 256.482C170.794 256.482 170.282 256.882 170.282 257.474C170.282 259.25 175.258 258.258 175.354 261.442ZM177.613 261.458V256.578H176.573V255.09H177.613V252.898H179.453V255.09H181.597V256.578H179.453V261.458C179.453 262.114 179.709 262.386 180.477 262.386H181.597V263.906H180.157C178.589 263.906 177.613 263.25 177.613 261.458ZM187.434 263.906V252.066H189.258V256.114C189.866 255.378 190.858 254.946 191.994 254.946C193.962 254.946 195.498 256.242 195.498 258.706V263.906H193.69V258.978C193.69 257.362 192.81 256.53 191.482 256.53C190.138 256.53 189.258 257.362 189.258 258.978V263.906H187.434ZM197.217 259.458C197.217 256.738 199.057 254.946 201.377 254.946C202.865 254.946 203.889 255.65 204.433 256.37V255.09H206.273V263.906H204.433V262.594C203.873 263.346 202.817 264.05 201.345 264.05C199.057 264.05 197.217 262.178 197.217 259.458ZM204.433 259.49C204.433 257.602 203.137 256.53 201.761 256.53C200.401 256.53 199.089 257.554 199.089 259.458C199.089 261.362 200.401 262.466 201.761 262.466C203.137 262.466 204.433 261.394 204.433 259.49ZM210.493 259.266V263.906H208.669V255.09H210.493V256.37C211.005 255.49 211.885 254.946 213.133 254.946V256.834H212.669C211.325 256.834 210.493 257.394 210.493 259.266ZM214.201 259.458C214.201 256.738 216.041 254.946 218.377 254.946C219.529 254.946 220.745 255.49 221.417 256.322V252.066H223.257V263.906H221.417V262.578C220.857 263.378 219.801 264.05 218.361 264.05C216.041 264.05 214.201 262.178 214.201 259.458ZM221.417 259.49C221.417 257.602 220.121 256.53 218.745 256.53C217.385 256.53 216.073 257.554 216.073 259.458C216.073 261.362 217.385 262.466 218.745 262.466C220.121 262.466 221.417 261.394 221.417 259.49ZM230.033 263.906V256.578H228.993V255.09H230.033V254.466C230.033 252.434 231.073 251.554 233.377 251.554V253.074C232.257 253.074 231.873 253.458 231.873 254.466V255.09H233.505V256.578H231.873V263.906H230.033ZM243.522 259.49C243.522 262.258 241.474 264.05 238.946 264.05C236.434 264.05 234.53 262.258 234.53 259.49C234.53 256.722 236.514 254.946 239.026 254.946C241.538 254.946 243.522 256.722 243.522 259.49ZM236.386 259.49C236.386 261.49 237.57 262.466 238.946 262.466C240.306 262.466 241.65 261.49 241.65 259.49C241.65 257.49 240.354 256.53 238.994 256.53C237.618 256.53 236.386 257.49 236.386 259.49ZM247.149 259.266V263.906H245.325V255.09H247.149V256.37C247.661 255.49 248.541 254.946 249.789 254.946V256.834H249.325C247.981 256.834 247.149 257.394 247.149 259.266ZM255.91 261.458V256.578H254.87V255.09H255.91V252.898H257.75V255.09H259.894V256.578H257.75V261.458C257.75 262.114 258.006 262.386 258.774 262.386H259.894V263.906H258.454C256.886 263.906 255.91 263.25 255.91 261.458ZM261.575 263.906V252.066H263.399V256.114C264.007 255.378 264.999 254.946 266.135 254.946C268.103 254.946 269.639 256.242 269.639 258.706V263.906H267.831V258.978C267.831 257.362 266.951 256.53 265.623 256.53C264.279 256.53 263.399 257.362 263.399 258.978V263.906H261.575ZM275.678 256.482C274.446 256.482 273.454 257.314 273.262 258.706H278.142C278.11 257.346 277.038 256.482 275.678 256.482ZM279.806 261.282C279.31 262.818 277.918 264.05 275.758 264.05C273.23 264.05 271.358 262.258 271.358 259.49C271.358 256.722 273.15 254.946 275.758 254.946C278.27 254.946 280.046 256.69 280.046 259.282C280.046 259.586 280.03 259.874 279.982 260.178H273.246C273.374 261.634 274.414 262.514 275.758 262.514C276.878 262.514 277.502 261.97 277.838 261.282H279.806ZM283.729 262.85C283.729 263.506 283.217 264.018 282.577 264.018C281.921 264.018 281.409 263.506 281.409 262.85C281.409 262.194 281.921 261.682 282.577 261.682C283.217 261.682 283.729 262.194 283.729 262.85Z" fill="#5E6282"/>
<path d="M155.885 157.629H160.123C162.089 157.629 163.508 157.915 164.381 158.488C165.26 159.061 165.699 159.966 165.699 161.203C165.699 162.036 165.484 162.729 165.055 163.283C164.625 163.836 164.007 164.185 163.199 164.328V164.425C164.202 164.614 164.938 164.989 165.406 165.548C165.882 166.102 166.119 166.854 166.119 167.804C166.119 169.087 165.67 170.093 164.771 170.822C163.88 171.545 162.636 171.906 161.041 171.906H155.885V157.629ZM158.219 163.527H160.465C161.441 163.527 162.154 163.374 162.604 163.068C163.053 162.755 163.277 162.228 163.277 161.486C163.277 160.815 163.033 160.33 162.545 160.031C162.063 159.731 161.295 159.582 160.24 159.582H158.219V163.527ZM158.219 165.422V169.943H160.699C161.676 169.943 162.411 169.757 162.906 169.386C163.408 169.009 163.658 168.416 163.658 167.609C163.658 166.867 163.404 166.317 162.896 165.959C162.389 165.601 161.617 165.422 160.582 165.422H158.219ZM173.561 172.101C171.881 172.101 170.566 171.613 169.615 170.636C168.671 169.653 168.199 168.302 168.199 166.584C168.199 164.819 168.639 163.433 169.518 162.423C170.396 161.414 171.604 160.91 173.141 160.91C174.566 160.91 175.693 161.343 176.52 162.209C177.346 163.075 177.76 164.266 177.76 165.783V167.023H170.562C170.595 168.071 170.878 168.879 171.412 169.445C171.946 170.005 172.698 170.285 173.668 170.285C174.306 170.285 174.898 170.226 175.445 170.109C175.999 169.985 176.591 169.783 177.223 169.504V171.369C176.663 171.636 176.096 171.825 175.523 171.935C174.951 172.046 174.296 172.101 173.561 172.101ZM173.141 162.648C172.411 162.648 171.826 162.879 171.383 163.341C170.947 163.804 170.686 164.477 170.602 165.363H175.504C175.491 164.471 175.276 163.797 174.859 163.341C174.443 162.879 173.87 162.648 173.141 162.648ZM187.623 168.83C187.623 169.884 187.239 170.695 186.471 171.261C185.702 171.821 184.602 172.101 183.17 172.101C181.731 172.101 180.576 171.883 179.703 171.447V169.464C180.973 170.05 182.154 170.343 183.248 170.343C184.661 170.343 185.367 169.917 185.367 169.064C185.367 168.791 185.289 168.563 185.133 168.38C184.977 168.198 184.719 168.009 184.361 167.814C184.003 167.619 183.505 167.397 182.867 167.15C181.624 166.668 180.781 166.186 180.338 165.705C179.902 165.223 179.684 164.598 179.684 163.83C179.684 162.905 180.055 162.189 180.797 161.681C181.546 161.167 182.561 160.91 183.844 160.91C185.113 160.91 186.314 161.167 187.447 161.681L186.705 163.41C185.54 162.928 184.56 162.687 183.766 162.687C182.555 162.687 181.949 163.032 181.949 163.722C181.949 164.061 182.105 164.347 182.418 164.582C182.737 164.816 183.427 165.138 184.488 165.548C185.38 165.894 186.028 166.209 186.432 166.496C186.835 166.782 187.135 167.114 187.33 167.492C187.525 167.863 187.623 168.309 187.623 168.83ZM194.137 170.246C194.697 170.246 195.257 170.158 195.816 169.982V171.711C195.562 171.821 195.234 171.912 194.83 171.984C194.433 172.062 194.02 172.101 193.59 172.101C191.415 172.101 190.328 170.955 190.328 168.664V162.843H188.854V161.828L190.436 160.988L191.217 158.703H192.633V161.105H195.709V162.843H192.633V168.625C192.633 169.178 192.77 169.588 193.043 169.855C193.323 170.116 193.688 170.246 194.137 170.246ZM205.738 171.906H203.424V157.629H211.48V159.601H205.738V164.064H211.119V166.047H205.738V171.906ZM216.119 171.906H213.824V156.711H216.119V171.906ZM221.705 171.906H219.41V161.105H221.705V171.906ZM219.273 158.244C219.273 157.834 219.384 157.518 219.605 157.297C219.833 157.075 220.156 156.964 220.572 156.964C220.976 156.964 221.288 157.075 221.51 157.297C221.738 157.518 221.852 157.834 221.852 158.244C221.852 158.634 221.738 158.944 221.51 159.172C221.288 159.393 220.976 159.504 220.572 159.504C220.156 159.504 219.833 159.393 219.605 159.172C219.384 158.944 219.273 158.634 219.273 158.244ZM234.117 161.105V162.365L232.271 162.707C232.441 162.935 232.581 163.214 232.691 163.547C232.802 163.879 232.857 164.23 232.857 164.601C232.857 165.714 232.473 166.59 231.705 167.228C230.937 167.866 229.879 168.185 228.531 168.185C228.186 168.185 227.874 168.159 227.594 168.107C227.099 168.413 226.852 168.771 226.852 169.181C226.852 169.429 226.965 169.614 227.193 169.738C227.428 169.862 227.854 169.923 228.473 169.923H230.357C231.549 169.923 232.454 170.177 233.072 170.685C233.691 171.193 234 171.925 234 172.882C234 174.106 233.495 175.05 232.486 175.714C231.477 176.379 230.019 176.711 228.111 176.711C226.64 176.711 225.517 176.45 224.742 175.929C223.967 175.408 223.58 174.666 223.58 173.703C223.58 173.039 223.788 172.479 224.205 172.023C224.628 171.574 225.217 171.261 225.973 171.086C225.667 170.955 225.413 170.747 225.211 170.461C225.016 170.168 224.918 169.862 224.918 169.543C224.918 169.139 225.032 168.797 225.26 168.517C225.488 168.237 225.826 167.961 226.275 167.687C225.715 167.446 225.26 167.056 224.908 166.515C224.563 165.968 224.391 165.33 224.391 164.601C224.391 163.429 224.758 162.521 225.494 161.877C226.236 161.232 227.291 160.91 228.658 160.91C228.964 160.91 229.283 160.933 229.615 160.978C229.954 161.017 230.208 161.06 230.377 161.105H234.117ZM225.631 173.586C225.631 174.08 225.852 174.461 226.295 174.728C226.744 174.995 227.372 175.129 228.18 175.129C229.43 175.129 230.361 174.95 230.973 174.591C231.585 174.233 231.891 173.758 231.891 173.166C231.891 172.697 231.721 172.362 231.383 172.16C231.051 171.964 230.429 171.867 229.518 171.867H227.779C227.122 171.867 226.598 172.02 226.207 172.326C225.823 172.638 225.631 173.058 225.631 173.586ZM226.617 164.601C226.617 165.278 226.79 165.799 227.135 166.164C227.486 166.528 227.988 166.711 228.639 166.711C229.967 166.711 230.631 166.001 230.631 164.582C230.631 163.879 230.465 163.338 230.133 162.961C229.807 162.576 229.309 162.384 228.639 162.384C227.975 162.384 227.47 162.573 227.125 162.951C226.786 163.328 226.617 163.879 226.617 164.601ZM245.631 171.906H243.326V165.265C243.326 164.432 243.157 163.81 242.818 163.4C242.486 162.99 241.956 162.785 241.227 162.785C240.263 162.785 239.553 163.075 239.098 163.654C238.648 164.227 238.424 165.19 238.424 166.545V171.906H236.129V156.711H238.424V160.568C238.424 161.186 238.385 161.847 238.307 162.55H238.453C238.766 162.03 239.199 161.626 239.752 161.339C240.312 161.053 240.963 160.91 241.705 160.91C244.322 160.91 245.631 162.228 245.631 164.865V171.906ZM252.848 170.246C253.408 170.246 253.967 170.158 254.527 169.982V171.711C254.273 171.821 253.945 171.912 253.541 171.984C253.144 172.062 252.73 172.101 252.301 172.101C250.126 172.101 249.039 170.955 249.039 168.664V162.843H247.564V161.828L249.146 160.988L249.928 158.703H251.344V161.105H254.42V162.843H251.344V168.625C251.344 169.178 251.48 169.588 251.754 169.855C252.034 170.116 252.398 170.246 252.848 170.246ZM263.951 168.83C263.951 169.884 263.567 170.695 262.799 171.261C262.031 171.821 260.93 172.101 259.498 172.101C258.059 172.101 256.904 171.883 256.031 171.447V169.464C257.301 170.05 258.482 170.343 259.576 170.343C260.989 170.343 261.695 169.917 261.695 169.064C261.695 168.791 261.617 168.563 261.461 168.38C261.305 168.198 261.048 168.009 260.689 167.814C260.331 167.619 259.833 167.397 259.195 167.15C257.952 166.668 257.109 166.186 256.666 165.705C256.23 165.223 256.012 164.598 256.012 163.83C256.012 162.905 256.383 162.189 257.125 161.681C257.874 161.167 258.889 160.91 260.172 160.91C261.441 160.91 262.643 161.167 263.775 161.681L263.033 163.41C261.868 162.928 260.888 162.687 260.094 162.687C258.883 162.687 258.277 163.032 258.277 163.722C258.277 164.061 258.434 164.347 258.746 164.582C259.065 164.816 259.755 165.138 260.816 165.548C261.708 165.894 262.356 166.209 262.76 166.496C263.163 166.782 263.463 167.114 263.658 167.492C263.854 167.863 263.951 168.309 263.951 168.83Z" fill="#1E1D4C"/>
<path d="M176.805 72.9058C176.805 82.8469 184.864 90.9058 194.805 90.9058L221.805 90.9058C224.567 90.9058 226.805 88.6672 226.805 85.9058L226.805 51.9058C226.805 46.3829 222.328 41.9058 216.805 41.9058L181.805 41.9058C179.044 41.9058 176.805 44.1443 176.805 46.9058L176.805 72.9058Z" fill="#FFEBB9"/>
<path d="M225.389 86.8472C224.031 87.1514 222.708 87.715 221.502 88.5024C218.361 90.5037 216.534 93.3604 217.421 94.8826C218.308 96.4047 221.573 96.0154 224.714 94.0141C225.935 93.2545 227.021 92.2837 227.903 91.1618C228.312 90.6197 228.386 89.9442 228.091 89.4393L226.938 87.4619C226.645 86.9554 226.037 86.7145 225.389 86.8472Z" fill="#D5D6DB"/>
<path d="M217.502 59.8541C216.517 60.0748 215.558 60.4837 214.683 61.0547C212.407 62.5055 211.081 64.5769 211.723 65.6797C212.366 66.7825 214.734 66.4999 217.011 65.0493C217.897 64.4982 218.684 63.794 219.324 62.9803C219.62 62.5874 219.673 62.098 219.459 61.732L218.625 60.3002C218.413 59.933 217.972 59.758 217.502 59.8541Z" fill="#D5D6DB"/>
<path d="M204.688 60.9845C204.469 60.96 204.235 61.0184 204.032 61.1479L198.684 64.5562C198.237 64.8404 198.057 65.3877 198.284 65.7789C198.336 65.8685 198.407 65.9451 198.494 66.0041L211.675 75.089L229.509 63.7243L204.688 60.9845Z" fill="#029BC5"/>
<path d="M261.065 59.6999L212.533 90.252L183.82 101.677L169.177 104.588L167.566 101.851L248.461 51.9043C250.872 50.4095 253.557 49.4919 256.246 49.2448C257.424 49.1429 258.587 49.1821 259.708 49.3609C260.702 49.5116 261.645 49.8023 262.508 50.2244C263.472 50.7026 265.307 50.7578 265.901 51.7106C265.903 51.7091 267.305 56.0835 261.065 59.6999Z" fill="#E1E6E9"/>
<path d="M213.176 86.2095L192.181 119.679C191.919 120.15 192.074 120.676 192.528 120.855C192.807 120.965 193.148 120.922 193.434 120.74L198.778 117.35C199.806 116.697 200.716 115.869 201.452 114.915L242.169 67.0462L213.176 86.2095Z" fill="#029BC5"/>
<path d="M160.196 85.092C159.846 84.9723 159.429 85.0344 159.078 85.2584L154.66 88.0718C154.058 88.4549 153.818 89.1913 154.124 89.717C154.183 89.8169 154.258 89.9049 154.349 89.9773L166.726 99.8896L179.739 91.7615L160.196 85.092Z" fill="#029BC5"/>
<path d="M170.874 101.677L164.213 111.006C164.115 111.14 164.138 111.308 164.264 111.382C164.355 111.435 164.479 111.425 164.579 111.358L168.708 108.742C168.74 108.721 168.769 108.696 168.793 108.667L178.526 96.832L170.874 101.677Z" fill="#029BC5"/>
<path d="M258.911 49.7631C257.757 49.5777 256.559 49.5381 255.346 49.6447C254.165 51.2958 253.411 53.1505 253.157 55.0239C253.139 55.4002 253.442 55.6711 253.835 55.6289C253.957 55.6156 254.078 55.5727 254.188 55.504L261.796 50.6597C260.906 50.2211 259.935 49.9193 258.911 49.7631Z" fill="#029BC5"/>
<path d="M242.332 58.6713L247.299 55.5343L251.926 63.4033L246.959 66.5403L242.332 58.6713Z" fill="#D5D6DB"/>
<path d="M239.207 61.7834C238.608 62.1625 238.369 62.8913 238.673 63.411L239.165 64.253C239.489 64.7595 240.228 64.8485 240.816 64.4518C241.376 64.074 241.602 63.3874 241.332 62.8803L240.84 62.0383C240.536 61.5191 239.805 61.4048 239.207 61.7834Z" fill="#3A556A"/>
<path d="M234.742 64.5559C234.144 64.9351 233.904 65.6639 234.208 66.1836L234.701 67.0256C235.025 67.532 235.764 67.6211 236.352 67.2244C236.912 66.8466 237.137 66.1599 236.868 65.6529L236.375 64.8109C236.071 64.2918 235.341 64.1775 234.742 64.5559Z" fill="#3A556A"/>
<path d="M230.276 67.3292C229.679 67.7089 229.44 68.4368 229.744 68.956L230.236 69.798C230.56 70.3044 231.299 70.3935 231.887 69.9968C232.447 69.619 232.673 68.9324 232.403 68.4254L231.911 67.5834C231.607 67.0637 230.875 66.9499 230.276 67.3292Z" fill="#3A556A"/>
<path d="M225.812 70.1017C225.214 70.4813 224.976 71.2092 225.279 71.7285L225.772 72.5705C226.096 73.077 226.835 73.166 227.423 72.7693C227.983 72.3915 228.208 71.7049 227.939 71.1978L227.446 70.3558C227.142 69.8363 226.411 69.7225 225.812 70.1017Z" fill="#3A556A"/>
<path d="M221.348 72.8743C220.75 73.2541 220.511 73.9824 220.815 74.5019L221.308 75.3442C221.611 75.8635 222.343 75.9772 222.941 75.5982C223.539 75.2192 223.778 74.491 223.475 73.9718L222.982 73.1294C222.679 72.6097 221.948 72.4952 221.349 72.8735C221.349 72.8738 221.349 72.874 221.348 72.8743Z" fill="#3A556A"/>
<path d="M216.884 75.6468C216.285 76.0266 216.047 76.7548 216.351 77.2743L216.843 78.1167C217.147 78.6359 217.878 78.7497 218.477 78.3707C219.075 77.9917 219.314 77.2635 219.01 76.7442L218.518 75.9019C218.215 75.3821 217.484 75.2677 216.885 75.646C216.884 75.6463 216.884 75.6466 216.884 75.6468Z" fill="#3A556A"/>
<path d="M212.419 78.4193C211.821 78.7991 211.582 79.5273 211.886 80.0468L212.379 80.8891C212.683 81.4078 213.415 81.5204 214.013 81.1409C214.609 80.7621 214.848 80.0355 214.545 79.5168L214.053 78.6745C213.749 78.1549 213.018 78.0406 212.419 78.4193Z" fill="#3A556A"/>
<path d="M207.955 81.1917C207.356 81.5715 207.118 82.2998 207.422 82.8192L207.914 83.6616C208.219 84.1804 208.95 84.293 209.548 83.9135C210.145 83.5346 210.383 82.808 210.081 82.2893L209.588 81.447C209.285 80.9273 208.553 80.813 207.955 81.1917Z" fill="#3A556A"/>
<path d="M203.49 83.9642C202.892 84.344 202.653 85.0722 202.957 85.5917L203.45 86.434C203.754 86.9528 204.486 87.0653 205.084 86.6859C205.68 86.307 205.919 85.5804 205.616 85.0617L205.124 84.2194C204.82 83.7 204.089 83.5856 203.49 83.9642Z" fill="#3A556A"/>
<path d="M199.024 86.7374C198.426 87.1164 198.187 87.8445 198.491 88.3638L198.491 88.3649L198.984 89.2072C199.288 89.726 200.02 89.8386 200.618 89.4591C201.214 89.0803 201.453 88.3536 201.151 87.835L200.658 86.9926C200.354 86.473 199.623 86.3586 199.024 86.7374Z" fill="#3A556A"/>
<path d="M194.561 89.5091C193.963 89.8881 193.724 90.6163 194.028 91.1355L194.028 91.1366L194.521 91.9789C194.825 92.4977 195.557 92.6103 196.155 92.2308C196.751 91.852 196.99 91.1253 196.688 90.6067L196.195 89.7644C195.891 89.2449 195.16 89.1306 194.561 89.5091Z" fill="#3A556A"/>
<defs>
<filter id="filter0_dddddd_1_635" x="0" y="0.609588" width="427" height="495.296" filterUnits="userSpaceOnUse" color-interpolation-filters="sRGB">
<feFlood flood-opacity="0" result="BackgroundImageFix"/>
<feColorMatrix in="SourceAlpha" type="matrix" values="0 0 0 0 0 0 0 0 0 0 0 0 0 0 0 0 0 0 127 0" result="hardAlpha"/>
<feOffset dy="1.85185"/>
<feGaussianBlur stdDeviation="1.57407"/>
<feColorMatrix type="matrix" values="0 0 0 0 0 0 0 0 0 0 0 0 0 0 0 0 0 0 0.01 0"/>
<feBlend mode="normal" in2="BackgroundImageFix" result="effect1_dropShadow_1_635"/>
<feColorMatrix in="SourceAlpha" type="matrix" values="0 0 0 0 0 0 0 0 0 0 0 0 0 0 0 0 0 0 127 0" result="hardAlpha"/>
<feOffset dy="8.14815"/>
<feGaussianBlur stdDeviation="3.25926"/>
<feColorMatrix type="matrix" values="0 0 0 0 0 0 0 0 0 0 0 0 0 0 0 0 0 0 0.01 0"/>
<feBlend mode="normal" in2="effect1_dropShadow_1_635" result="effect2_dropShadow_1_635"/>
<feColorMatrix in="SourceAlpha" type="matrix" values="0 0 0 0 0 0 0 0 0 0 0 0 0 0 0 0 0 0 127 0" result="hardAlpha"/>
<feOffset dy="20"/>
<feGaussianBlur stdDeviation="6.5"/>
<feColorMatrix type="matrix" values="0 0 0 0 0 0 0 0 0 0 0 0 0 0 0 0 0 0 0.01 0"/>
<feBlend mode="normal" in2="effect2_dropShadow_1_635" result="effect3_dropShadow_1_635"/>
<feColorMatrix in="SourceAlpha" type="matrix" values="0 0 0 0 0 0 0 0 0 0 0 0 0 0 0 0 0 0 127 0" result="hardAlpha"/>
<feOffset dy="38.5185"/>
<feGaussianBlur stdDeviation="12.7407"/>
<feColorMatrix type="matrix" values="0 0 0 0 0 0 0 0 0 0 0 0 0 0 0 0 0 0 0.0121481 0"/>
<feBlend mode="normal" in2="effect3_dropShadow_1_635" result="effect4_dropShadow_1_635"/>
<feColorMatrix in="SourceAlpha" type="matrix" values="0 0 0 0 0 0 0 0 0 0 0 0 0 0 0 0 0 0 127 0" result="hardAlpha"/>
<feOffset dy="64.8148"/>
<feGaussianBlur stdDeviation="23.4259"/>
<feColorMatrix type="matrix" values="0 0 0 0 0 0 0 0 0 0 0 0 0 0 0 0 0 0 0.0151852 0"/>
<feBlend mode="normal" in2="effect4_dropShadow_1_635" result="effect5_dropShadow_1_635"/>
<feColorMatrix in="SourceAlpha" type="matrix" values="0 0 0 0 0 0 0 0 0 0 0 0 0 0 0 0 0 0 127 0" result="hardAlpha"/>
<feOffset dy="100"/>
<feGaussianBlur stdDeviation="40"/>
<feColorMatrix type="matrix" values="0 0 0 0 0 0 0 0 0 0 0 0 0 0 0 0 0 0 0.02 0"/>
<feBlend mode="normal" in2="effect5_dropShadow_1_635" result="effect6_dropShadow_1_635"/>
<feBlend mode="normal" in="SourceGraphic" in2="effect6_dropShadow_1_635" result="shape"/>
</filter>
</defs>
</svg>
